<svg width="275" height="70" viewBox="0 0 275 70" fill="none" xmlns="http://www.w3.org/2000/svg">
<path d="M2.39941 55V25.5215H10.125V30.7686H10.4941C11.1094 29.0283 12.1377 27.6572 13.5791 26.6553C15.0205 25.6533 16.7344 25.1523 18.7207 25.1523C20.7422 25.1523 22.4561 25.6621 23.8623 26.6816C25.2861 27.6836 26.2354 29.0459 26.71 30.7686H27.0264C27.624 29.0635 28.7139 27.7012 30.2959 26.6816C31.8779 25.6621 33.7412 25.1523 35.8857 25.1523C38.6279 25.1523 40.8604 26.0225 42.583 27.7627C44.3232 29.5029 45.1934 31.9727 45.1934 35.1719V55H37.0195V36.8066C37.0195 35.1543 36.5801 33.9238 35.7012 33.1152C34.8398 32.3066 33.7588 31.9023 32.458 31.9023C30.9814 31.9023 29.8213 32.377 28.9775 33.3262C28.1514 34.2578 27.7383 35.4883 27.7383 37.0176V55H19.8281V36.5957C19.8281 35.1719 19.415 34.0381 18.5889 33.1943C17.7627 32.333 16.6816 31.9023 15.3457 31.9023C14.4316 31.9023 13.6143 32.1309 12.8936 32.5879C12.1729 33.0449 11.6016 33.6777 11.1797 34.4863C10.7578 35.2773 10.5469 36.2266 10.5469 37.334V55H2.39941ZM50.0186 55V25.5215H58.166V55H50.0186ZM54.0791 21.751C52.8662 21.751 51.8291 21.3467 50.9678 20.5381C50.1064 19.7295 49.6758 18.7539 49.6758 17.6113C49.6758 16.4688 50.1064 15.502 50.9678 14.7109C51.8291 13.9023 52.8662 13.498 54.0791 13.498C55.3096 13.498 56.3555 13.9023 57.2168 14.7109C58.0781 15.502 58.5088 16.4688 58.5088 17.6113C58.5088 18.7539 58.0781 19.7295 57.2168 20.5381C56.3555 21.3467 55.3096 21.751 54.0791 21.751ZM71.1387 37.9668V55H62.9912V25.5215H71.0068V30.7686H71.2969C71.9648 29.0283 73.0283 27.6572 74.4873 26.6553C75.9463 25.6533 77.7744 25.1523 79.9717 25.1523C82.0107 25.1523 83.7861 25.6006 85.2979 26.4971C86.8271 27.3936 88.0137 28.668 88.8574 30.3203C89.7012 31.9727 90.123 33.9502 90.123 36.2529V55H81.9756V37.7031C81.9756 35.9102 81.5098 34.5039 80.5781 33.4844C79.6465 32.4473 78.3633 31.9287 76.7285 31.9287C75.6387 31.9287 74.6719 32.1748 73.8281 32.667C72.9844 33.1416 72.3252 33.8271 71.8506 34.7236C71.376 35.6201 71.1387 36.7012 71.1387 37.9668ZM105.706 55.4746C103.456 55.4746 101.426 54.8945 99.6152 53.7344C97.8047 52.5742 96.3721 50.8691 95.3174 48.6191C94.2627 46.3516 93.7354 43.583 93.7354 40.3135C93.7354 36.9385 94.2803 34.126 95.3701 31.876C96.46 29.626 97.9102 27.9473 99.7207 26.8398C101.531 25.7148 103.509 25.1523 105.653 25.1523C107.306 25.1523 108.686 25.4336 109.793 25.9961C110.9 26.541 111.797 27.2266 112.482 28.0527C113.168 28.8789 113.687 29.6963 114.038 30.5049H114.275V15.7129H122.449V55H114.407V50.2803H114.038C113.669 51.0889 113.133 51.8975 112.43 52.7061C111.727 53.4971 110.821 54.1562 109.714 54.6836C108.624 55.2109 107.288 55.4746 105.706 55.4746ZM108.264 48.9883C109.582 48.9883 110.698 48.6279 111.612 47.9072C112.544 47.1689 113.247 46.1494 113.722 44.8486C114.214 43.5479 114.46 42.0273 114.46 40.2871C114.46 38.5293 114.223 37.0088 113.748 35.7256C113.273 34.4248 112.57 33.4229 111.639 32.7197C110.707 31.999 109.582 31.6387 108.264 31.6387C106.928 31.6387 105.803 32.0078 104.889 32.7461C103.975 33.4844 103.28 34.5039 102.806 35.8047C102.331 37.0879 102.094 38.582 102.094 40.2871C102.094 41.9922 102.331 43.5039 102.806 44.8223C103.28 46.123 103.975 47.1426 104.889 47.8809C105.82 48.6191 106.945 48.9883 108.264 48.9883ZM151.69 33.9326L144.229 34.3809C144.035 33.4492 143.517 32.6494 142.673 31.9814C141.829 31.2959 140.695 30.9531 139.271 30.9531C138.006 30.9531 136.942 31.2168 136.081 31.7441C135.237 32.2715 134.815 32.9746 134.815 33.8535C134.815 34.5566 135.088 35.1631 135.633 35.6729C136.195 36.165 137.153 36.5518 138.507 36.833L143.859 37.8877C146.725 38.4678 148.86 39.4082 150.267 40.709C151.673 42.0098 152.376 43.7236 152.376 45.8506C152.376 47.8018 151.813 49.5068 150.688 50.9658C149.563 52.4072 148.017 53.541 146.048 54.3672C144.079 55.1758 141.82 55.5801 139.271 55.5801C135.369 55.5801 132.258 54.7627 129.938 53.1279C127.635 51.4932 126.29 49.2783 125.903 46.4834L133.893 46.0615C134.156 47.2568 134.754 48.1621 135.686 48.7773C136.617 49.3926 137.812 49.7002 139.271 49.7002C140.695 49.7002 141.847 49.4189 142.726 48.8564C143.622 48.2939 144.07 47.582 144.07 46.7207C144.07 45.2617 142.805 44.2773 140.273 43.7676L135.185 42.7129C132.319 42.1328 130.184 41.1396 128.777 39.7334C127.371 38.3271 126.668 36.5254 126.668 34.3281C126.668 32.4297 127.187 30.7949 128.224 29.4238C129.261 28.0527 130.711 26.998 132.574 26.2598C134.455 25.5215 136.652 25.1523 139.166 25.1523C142.893 25.1523 145.819 25.9434 147.946 27.5254C150.091 29.0898 151.339 31.2256 151.69 33.9326Z" fill="#231F1F"/>
<path d="M172.662 55.5801C169.656 55.5801 167.072 54.9385 164.91 53.6553C162.748 52.3545 161.087 50.5703 159.927 48.3027C158.767 46.0176 158.187 43.3809 158.187 40.3926C158.187 37.3691 158.767 34.7148 159.927 32.4297C161.104 30.1445 162.774 28.3604 164.937 27.0771C167.099 25.7939 169.674 25.1523 172.662 25.1523C175.229 25.1523 177.47 25.6182 179.386 26.5498C181.319 27.4814 182.849 28.791 183.974 30.4785C185.099 32.166 185.714 34.1523 185.819 36.4375H178.12C177.979 35.4531 177.681 34.5918 177.224 33.8535C176.767 33.1152 176.16 32.5439 175.404 32.1396C174.648 31.7354 173.77 31.5332 172.768 31.5332C171.502 31.5332 170.395 31.876 169.445 32.5615C168.514 33.2295 167.784 34.2227 167.257 35.541C166.747 36.8418 166.492 38.4238 166.492 40.2871C166.492 42.1504 166.747 43.75 167.257 45.0859C167.784 46.4219 168.514 47.4414 169.445 48.1445C170.395 48.8477 171.502 49.1992 172.768 49.1992C174.174 49.1992 175.36 48.7598 176.327 47.8809C177.294 46.9844 177.892 45.7539 178.12 44.1895H185.819C185.696 46.4395 185.09 48.4258 184 50.1484C182.91 51.8535 181.407 53.1895 179.491 54.1562C177.575 55.1055 175.299 55.5801 172.662 55.5801ZM189.353 55V25.5215H197.236V30.6895H197.553C198.098 28.8613 199.003 27.4814 200.269 26.5498C201.534 25.6006 202.984 25.126 204.619 25.126C205.041 25.126 205.48 25.1523 205.938 25.2051C206.412 25.2402 206.834 25.3105 207.203 25.416V32.6406C206.816 32.5176 206.28 32.4209 205.595 32.3506C204.927 32.2627 204.303 32.2188 203.723 32.2188C202.545 32.2188 201.481 32.4824 200.532 33.0098C199.583 33.5195 198.836 34.2402 198.291 35.1719C197.764 36.0859 197.5 37.1406 197.5 38.3359V55H189.353ZM217.196 55.5537C215.333 55.5537 213.654 55.2285 212.16 54.5781C210.684 53.9102 209.523 52.9258 208.68 51.625C207.836 50.3242 207.414 48.707 207.414 46.7734C207.414 45.1211 207.713 43.75 208.311 42.6602C208.908 41.5527 209.726 40.6562 210.763 39.9707C211.8 39.2852 212.978 38.7666 214.296 38.415C215.614 38.0635 217.012 37.8174 218.488 37.6768C220.193 37.5186 221.564 37.3604 222.602 37.2021C223.639 37.0439 224.395 36.8066 224.869 36.4902C225.361 36.1562 225.607 35.6816 225.607 35.0664V34.9346C225.607 33.7217 225.221 32.7812 224.447 32.1133C223.691 31.4453 222.619 31.1113 221.23 31.1113C219.771 31.1113 218.603 31.4365 217.724 32.0869C216.862 32.7197 216.291 33.5283 216.01 34.5127L208.442 33.9062C208.829 32.1133 209.585 30.5664 210.71 29.2656C211.835 27.9473 213.285 26.9365 215.061 26.2334C216.854 25.5127 218.928 25.1523 221.283 25.1523C222.918 25.1523 224.482 25.3457 225.977 25.7324C227.471 26.1191 228.798 26.7168 229.958 27.5254C231.136 28.3164 232.067 29.3447 232.753 30.6104C233.438 31.876 233.781 33.3789 233.781 35.1191V55H226.003V50.8867H225.792C225.317 51.8184 224.685 52.6357 223.894 53.3389C223.103 54.0244 222.153 54.5693 221.046 54.9736C219.938 55.3604 218.655 55.5537 217.196 55.5537ZM219.543 49.9111C220.738 49.9111 221.793 49.6738 222.707 49.1992C223.639 48.707 224.359 48.0566 224.869 47.248C225.396 46.4219 225.66 45.499 225.66 44.4795V41.3418C225.414 41.5 225.062 41.6494 224.605 41.79C224.166 41.9307 223.674 42.0537 223.129 42.1592C222.584 42.2646 222.039 42.3613 221.494 42.4492C220.949 42.5195 220.457 42.5898 220.018 42.6602C219.051 42.8008 218.207 43.0293 217.486 43.3457C216.766 43.6445 216.203 44.0576 215.799 44.585C215.412 45.0947 215.219 45.7363 215.219 46.5098C215.219 47.6172 215.623 48.4609 216.432 49.041C217.24 49.6211 218.277 49.9111 219.543 49.9111ZM254.479 25.5215V31.6914H236.312V25.5215H254.479ZM240.479 55V23.3857C240.479 21.2588 240.892 19.4922 241.718 18.0859C242.562 16.6797 243.704 15.625 245.146 14.9219C246.604 14.2187 248.257 13.8672 250.103 13.8672C251.368 13.8672 252.52 13.9727 253.557 14.1836C254.611 14.377 255.385 14.5439 255.877 14.6846L254.453 20.8018C254.119 20.7139 253.724 20.626 253.267 20.5381C252.81 20.4502 252.326 20.4062 251.816 20.4062C250.621 20.4062 249.786 20.6875 249.312 21.25C248.837 21.7949 248.6 22.5684 248.6 23.5703V55H240.479ZM273.385 25.5215V31.6914H255.64V25.5215H273.385ZM259.674 18.5078H267.821V45.9297C267.821 46.9141 268.041 47.6436 268.48 48.1182C268.92 48.5752 269.623 48.8037 270.59 48.8037C270.906 48.8037 271.258 48.7773 271.645 48.7246C272.031 48.6719 272.365 48.6104 272.646 48.54L273.938 54.6572C273.042 54.9209 272.172 55.1143 271.328 55.2373C270.502 55.3604 269.685 55.4219 268.876 55.4219C265.94 55.4219 263.673 54.6924 262.073 53.2334C260.474 51.7568 259.674 49.6826 259.674 47.0107V18.5078Z" fill="#231F1F"/>
</svg>
