<svg width="1447" height="275" viewBox="0 0 1447 275" fill="none" xmlns="http://www.w3.org/2000/svg">
<path d="M0 0H275V275H0V0Z" fill="#101828"/>
<path fill-rule="evenodd" clip-rule="evenodd" d="M156.264 197.555L125.13 79.115C124.367 76.2099 122.635 73.8549 121.264 73.8475L85.9478 73.6935C84.5759 73.6935 84.0771 76.0336 84.84 78.9387L115.974 197.379C116.737 200.284 118.468 202.639 119.84 202.646L155.156 202.801C156.528 202.801 157.027 200.46 156.264 197.555Z" fill="#F3F4C0" fill-opacity="0.8"/>
<path fill-rule="evenodd" clip-rule="evenodd" d="M51.6911 197.144L82.8253 78.5711C83.5883 75.666 85.3196 73.3188 86.6914 73.3334L122.007 73.7221C123.379 73.7368 123.878 76.1063 123.115 79.0113L91.9807 197.584C91.2177 200.489 89.4864 202.837 88.1146 202.822L52.7989 202.433C51.427 202.419 50.9282 200.049 51.6911 197.144Z" fill="#F3F4C0"/>
<path fill-rule="evenodd" clip-rule="evenodd" d="M222.293 198.201L191.159 79.1519C190.396 76.2321 188.665 73.8624 187.293 73.8551L151.977 73.6935C150.605 73.6935 150.107 76.0487 150.869 78.9685L182.004 198.018C182.767 200.937 184.498 203.307 185.87 203.314L221.186 203.476C222.557 203.476 223.056 201.121 222.293 198.201Z" fill="#F3F4C0" fill-opacity="0.8"/>
<path fill-rule="evenodd" clip-rule="evenodd" d="M117.721 197.589L148.855 78.8334C149.618 75.921 151.349 73.5661 152.721 73.5735L188.037 73.7494C189.408 73.7494 189.907 76.1191 189.144 79.0315L158.01 197.787C157.247 200.7 155.516 203.055 154.144 203.047L118.828 202.871C117.456 202.871 116.958 200.502 117.721 197.589Z" fill="#F3F4C0"/>
<path d="M346.12 220.5V64.98H369.556L423.34 175.14L477.124 64.98H500.56V220.5H476.26V120.816L428.524 220.5H418.156L370.528 120.816V220.5H346.12ZM524.421 86.148V62.28H550.449V86.148H524.421ZM524.421 220.5V103.86H550.449V220.5H524.421ZM654.836 220.5V164.34C654.836 160.668 654.584 156.6 654.08 152.136C653.576 147.672 652.388 143.388 650.516 139.284C648.716 135.108 645.98 131.688 642.308 129.024C638.708 126.36 633.812 125.028 627.62 125.028C624.308 125.028 621.032 125.568 617.792 126.648C614.552 127.728 611.6 129.6 608.936 132.264C606.344 134.856 604.256 138.456 602.672 143.064C601.088 147.6 600.296 153.432 600.296 160.56L584.852 153.972C584.852 144.036 586.76 135.036 590.576 126.972C594.464 118.908 600.152 112.5 607.64 107.748C615.128 102.924 624.344 100.512 635.288 100.512C643.928 100.512 651.056 101.952 656.672 104.832C662.288 107.712 666.752 111.384 670.064 115.848C673.376 120.312 675.824 125.064 677.408 130.104C678.992 135.144 680 139.932 680.432 144.468C680.936 148.932 681.188 152.568 681.188 155.376V220.5H654.836ZM573.944 220.5V103.86H597.164V140.04H600.296V220.5H573.944ZM745.597 223.74C734.869 223.74 725.509 221.04 717.517 215.64C709.525 210.24 703.333 202.896 698.941 193.608C694.549 184.32 692.353 173.844 692.353 162.18C692.353 150.372 694.549 139.86 698.941 130.644C703.405 121.356 709.705 114.048 717.841 108.72C725.977 103.32 735.553 100.62 746.569 100.62C757.657 100.62 766.945 103.32 774.433 108.72C781.993 114.048 787.717 121.356 791.605 130.644C795.493 139.932 797.437 150.444 797.437 162.18C797.437 173.772 795.493 184.248 791.605 193.608C787.717 202.896 781.921 210.24 774.217 215.64C766.513 221.04 756.973 223.74 745.597 223.74ZM749.593 200.412C756.577 200.412 762.193 198.828 766.441 195.66C770.761 192.42 773.893 187.92 775.837 182.16C777.853 176.4 778.861 169.74 778.861 162.18C778.861 154.548 777.853 147.888 775.837 142.2C773.893 136.44 770.833 131.976 766.657 128.808C762.481 125.568 757.081 123.948 750.457 123.948C743.473 123.948 737.713 125.676 733.177 129.132C728.641 132.516 725.293 137.124 723.133 142.956C720.973 148.716 719.893 155.124 719.893 162.18C719.893 169.308 720.937 175.788 723.025 181.62C725.185 187.38 728.461 191.952 732.853 195.336C737.245 198.72 742.825 200.412 749.593 200.412ZM778.861 220.5V138.636H775.621V64.98H801.865V220.5H778.861ZM868.541 223.74C854.141 223.74 842.441 220.5 833.441 214.02C824.441 207.54 818.969 198.432 817.025 186.696L843.593 182.592C844.961 188.352 847.985 192.888 852.665 196.2C857.345 199.512 863.249 201.168 870.377 201.168C876.641 201.168 881.465 199.944 884.849 197.496C888.305 194.976 890.033 191.556 890.033 187.236C890.033 184.572 889.385 182.448 888.089 180.864C886.865 179.208 884.129 177.624 879.881 176.112C875.633 174.6 869.117 172.692 860.333 170.388C850.541 167.796 842.765 165.024 837.005 162.072C831.245 159.048 827.105 155.484 824.585 151.38C822.065 147.276 820.805 142.308 820.805 136.476C820.805 129.204 822.713 122.868 826.529 117.468C830.345 112.068 835.673 107.928 842.513 105.048C849.353 102.096 857.417 100.62 866.705 100.62C875.777 100.62 883.805 102.024 890.789 104.832C897.845 107.64 903.533 111.636 907.853 116.82C912.173 122.004 914.837 128.088 915.845 135.072L889.277 139.824C888.629 134.856 886.361 130.932 882.473 128.052C878.657 125.172 873.545 123.552 867.137 123.192C861.017 122.832 856.085 123.768 852.341 126C848.597 128.16 846.725 131.22 846.725 135.18C846.725 137.412 847.481 139.32 848.993 140.904C850.505 142.488 853.529 144.072 858.065 145.656C862.673 147.24 869.513 149.184 878.585 151.488C887.873 153.864 895.289 156.6 900.833 159.696C906.449 162.72 910.481 166.356 912.929 170.604C915.449 174.852 916.709 180 916.709 186.048C916.709 197.784 912.425 207 903.857 213.696C895.361 220.392 883.589 223.74 868.541 223.74ZM982.377 223.74C970.353 223.74 960.093 221.076 951.597 215.748C943.101 210.348 936.585 203.004 932.049 193.716C927.585 184.428 925.317 173.916 925.245 162.18C925.317 150.228 927.657 139.644 932.265 130.428C936.945 121.14 943.569 113.868 952.137 108.612C960.705 103.284 970.893 100.62 982.701 100.62C995.949 100.62 1007.14 103.968 1016.29 110.664C1025.5 117.288 1031.52 126.36 1034.32 137.88L1008.4 144.9C1006.39 138.636 1003.04 133.776 998.361 130.32C993.681 126.792 988.353 125.028 982.377 125.028C975.609 125.028 970.029 126.648 965.637 129.888C961.245 133.056 958.005 137.448 955.917 143.064C953.829 148.68 952.785 155.052 952.785 162.18C952.785 173.268 955.269 182.232 960.237 189.072C965.205 195.912 972.585 199.332 982.377 199.332C989.289 199.332 994.725 197.748 998.685 194.58C1002.72 191.412 1005.74 186.84 1007.76 180.864L1034.32 186.804C1030.72 198.684 1024.42 207.828 1015.42 214.236C1006.42 220.572 995.409 223.74 982.377 223.74ZM1047.33 220.5V103.86H1070.33V132.264L1067.52 128.592C1068.96 124.704 1070.87 121.176 1073.25 118.008C1075.69 114.768 1078.61 112.104 1081.99 110.016C1084.87 108.072 1088.04 106.56 1091.5 105.48C1095.03 104.328 1098.63 103.644 1102.3 103.428C1105.97 103.14 1109.53 103.284 1112.99 103.86V128.16C1109.53 127.152 1105.54 126.828 1101 127.188C1096.54 127.548 1092.51 128.808 1088.91 130.968C1085.31 132.912 1082.35 135.396 1080.05 138.42C1077.82 141.444 1076.16 144.9 1075.08 148.788C1074 152.604 1073.46 156.744 1073.46 161.208V220.5H1047.33ZM1154.83 223.74C1146.41 223.74 1139.28 222.156 1133.45 218.988C1127.62 215.748 1123.19 211.464 1120.17 206.136C1117.21 200.808 1115.74 194.94 1115.74 188.532C1115.74 182.916 1116.67 177.876 1118.55 173.412C1120.42 168.876 1123.3 164.988 1127.19 161.748C1131.07 158.436 1136.11 155.736 1142.31 153.648C1146.99 152.136 1152.46 150.768 1158.72 149.544C1165.06 148.32 1171.9 147.204 1179.24 146.196C1186.66 145.116 1194.4 143.964 1202.46 142.74L1193.17 148.032C1193.25 139.968 1191.45 134.028 1187.77 130.212C1184.1 126.396 1177.91 124.488 1169.2 124.488C1163.94 124.488 1158.87 125.712 1153.97 128.16C1149.07 130.608 1145.65 134.82 1143.71 140.796L1119.95 133.344C1122.83 123.48 1128.3 115.56 1136.37 109.584C1144.5 103.608 1155.45 100.62 1169.2 100.62C1179.57 100.62 1188.67 102.312 1196.52 105.696C1204.44 109.08 1210.31 114.624 1214.13 122.328C1216.21 126.432 1217.47 130.644 1217.91 134.964C1218.34 139.212 1218.55 143.856 1218.55 148.896V220.5H1195.77V195.228L1199.55 199.332C1194.29 207.756 1188.13 213.948 1181.08 217.908C1174.09 221.796 1165.35 223.74 1154.83 223.74ZM1160.02 203.004C1165.92 203.004 1170.96 201.96 1175.14 199.872C1179.31 197.784 1182.63 195.228 1185.07 192.204C1187.59 189.18 1189.29 186.336 1190.15 183.672C1191.52 180.36 1192.27 176.58 1192.42 172.332C1192.63 168.012 1192.74 164.52 1192.74 161.856L1200.73 164.232C1192.89 165.456 1186.15 166.536 1180.54 167.472C1174.92 168.408 1170.1 169.308 1166.07 170.172C1162.03 170.964 1158.47 171.864 1155.37 172.872C1152.35 173.952 1149.79 175.212 1147.71 176.652C1145.62 178.092 1144 179.748 1142.85 181.62C1141.77 183.492 1141.23 185.688 1141.23 188.208C1141.23 191.088 1141.95 193.644 1143.39 195.876C1144.83 198.036 1146.91 199.764 1149.65 201.06C1152.46 202.356 1155.91 203.004 1160.02 203.004ZM1248.18 220.5V102.024C1248.18 99.072 1248.29 95.832 1248.51 92.304C1248.72 88.704 1249.34 85.14 1250.34 81.612C1251.35 78.084 1253.19 74.88 1255.85 72C1259.16 68.328 1262.73 65.808 1266.54 64.44C1270.43 63 1274.25 62.208 1277.99 62.064C1281.74 61.848 1285.01 61.74 1287.82 61.74H1302.4V82.908H1288.9C1283.93 82.908 1280.22 84.168 1277.78 86.688C1275.4 89.136 1274.21 92.376 1274.21 96.408V220.5H1248.18ZM1229.39 124.272V103.86H1302.4V124.272H1229.39ZM1379.39 220.5C1371.68 221.94 1364.12 222.552 1356.71 222.336C1349.36 222.192 1342.78 220.86 1336.94 218.34C1331.11 215.748 1326.68 211.68 1323.66 206.136C1321 201.096 1319.59 195.948 1319.45 190.692C1319.3 185.436 1319.23 179.496 1319.23 172.872V71.46H1345.15V171.36C1345.15 176.04 1345.19 180.144 1345.26 183.672C1345.4 187.2 1346.16 190.08 1347.53 192.312C1350.12 196.632 1354.26 199.044 1359.95 199.548C1365.64 200.052 1372.12 199.764 1379.39 198.684V220.5ZM1298.06 124.272V103.86H1379.39V124.272H1298.06ZM1400.15 220.5V193.824H1426.83V220.5H1400.15Z" fill="#101828"/>
</svg>
