<svg width="275" height="275" viewBox="0 0 275 275" fill="none" xmlns="http://www.w3.org/2000/svg">
<path d="M0 0H275V275H0V0Z" fill="#101828"/>
<path fill-rule="evenodd" clip-rule="evenodd" d="M156.264 197.555L125.13 79.115C124.367 76.2099 122.635 73.8549 121.264 73.8475L85.9478 73.6935C84.5759 73.6935 84.0771 76.0336 84.84 78.9387L115.974 197.379C116.737 200.284 118.468 202.639 119.84 202.646L155.156 202.801C156.528 202.801 157.027 200.46 156.264 197.555Z" fill="#F3F4C0" fill-opacity="0.8"/>
<path fill-rule="evenodd" clip-rule="evenodd" d="M51.6911 197.144L82.8253 78.5711C83.5883 75.666 85.3196 73.3188 86.6914 73.3334L122.007 73.7221C123.379 73.7368 123.878 76.1063 123.115 79.0113L91.9807 197.584C91.2177 200.489 89.4864 202.837 88.1146 202.822L52.7989 202.433C51.427 202.419 50.9282 200.049 51.6911 197.144Z" fill="#F3F4C0"/>
<path fill-rule="evenodd" clip-rule="evenodd" d="M222.293 198.201L191.159 79.1519C190.396 76.2321 188.665 73.8624 187.293 73.8551L151.977 73.6935C150.605 73.6935 150.107 76.0487 150.869 78.9685L182.004 198.018C182.767 200.937 184.498 203.307 185.87 203.314L221.186 203.476C222.557 203.476 223.056 201.121 222.293 198.201Z" fill="#F3F4C0" fill-opacity="0.8"/>
<path fill-rule="evenodd" clip-rule="evenodd" d="M117.721 197.589L148.855 78.8334C149.618 75.921 151.349 73.5661 152.721 73.5735L188.037 73.7494C189.408 73.7494 189.907 76.1191 189.144 79.0315L158.01 197.787C157.247 200.7 155.516 203.055 154.144 203.047L118.828 202.871C117.456 202.871 116.958 200.502 117.721 197.589Z" fill="#F3F4C0"/>
</svg>
