<svg width="1164" height="275" viewBox="0 0 1164 275" fill="none" xmlns="http://www.w3.org/2000/svg">
  <path d="M55 63.7368H95.578L138.347 167.851H140.12L182.993 63.7368H223.676V218.712H191.547V117.822H190.295L149.926 217.984H128.228L88.172 117.614H86.92V218.712H55V63.7368Z" fill="#101828"/>
  <path d="M243.287 218.712V102.429H275.52V218.712H243.287ZM259.351 87.5551C254.553 87.5551 250.45 85.9603 247.042 82.7707C243.634 79.581 241.931 75.7327 241.931 71.2256C241.931 66.7185 243.634 62.9048 247.042 59.7845C250.45 56.5948 254.553 55 259.351 55C264.219 55 268.357 56.5948 271.764 59.7845C275.172 62.9048 276.876 66.7185 276.876 71.2256C276.876 75.7327 275.172 79.581 271.764 82.7707C268.357 85.9603 264.219 87.5551 259.351 87.5551Z" fill="#101828"/>
  <path d="M326.842 151.521V218.712H294.609V102.429H326.32V123.127H327.468C330.111 116.262 334.318 110.853 340.09 106.901C345.862 102.949 353.094 100.972 361.787 100.972C369.854 100.972 376.878 102.741 382.859 106.277C388.909 109.813 393.603 114.84 396.941 121.358C400.279 127.876 401.948 135.677 401.948 144.761V218.712H369.715V150.481C369.715 143.409 367.872 137.861 364.186 133.84C360.501 129.749 355.424 127.703 348.957 127.703C344.645 127.703 340.82 128.674 337.482 130.615C334.144 132.487 331.536 135.192 329.659 138.728C327.781 142.264 326.842 146.529 326.842 151.521Z" fill="#101828"/>
  <path d="M463.598 220.584C454.696 220.584 446.664 218.296 439.501 213.719C432.338 209.143 426.671 202.417 422.498 193.541C418.325 184.596 416.239 173.675 416.239 160.778C416.239 147.465 418.395 136.371 422.707 127.495C427.018 118.619 432.756 111.997 439.918 107.629C447.081 103.191 454.905 100.972 463.389 100.972C469.926 100.972 475.385 102.082 479.766 104.301C484.147 106.45 487.694 109.155 490.406 112.414C493.118 115.673 495.17 118.897 496.561 122.086H497.5V63.7368H529.837V218.712H498.021V200.094H496.561C495.1 203.284 492.979 206.473 490.198 209.663C487.416 212.783 483.835 215.383 479.453 217.464C475.142 219.544 469.856 220.584 463.598 220.584ZM473.716 194.997C478.932 194.997 483.348 193.576 486.964 190.733C490.65 187.821 493.431 183.799 495.309 178.668C497.256 173.537 498.23 167.539 498.23 160.674C498.23 153.74 497.291 147.742 495.413 142.68C493.536 137.549 490.754 133.597 487.068 130.823C483.383 127.98 478.932 126.559 473.716 126.559C468.431 126.559 463.98 128.015 460.364 130.927C456.748 133.84 454.001 137.861 452.123 142.992C450.245 148.054 449.307 153.948 449.307 160.674C449.307 167.4 450.245 173.363 452.123 178.564C454.001 183.695 456.748 187.717 460.364 190.629C464.05 193.541 468.5 194.997 473.716 194.997Z" fill="#101828"/>
  <path d="M645.521 135.608L616 137.376C615.235 133.701 613.184 130.546 609.846 127.911C606.508 125.207 602.022 123.855 596.389 123.855C591.382 123.855 587.175 124.895 583.767 126.975C580.429 129.055 578.76 131.829 578.76 135.296C578.76 138.069 579.838 140.462 581.994 142.472C584.219 144.414 588.009 145.939 593.364 147.049L614.54 151.209C625.875 153.497 634.325 157.207 639.888 162.338C645.452 167.47 648.233 174.23 648.233 182.62C648.233 190.317 646.008 197.043 641.557 202.798C637.106 208.484 630.987 212.957 623.198 216.216C615.409 219.405 606.473 221 596.389 221C580.951 221 568.642 217.776 559.462 211.327C550.352 204.878 545.032 196.142 543.502 185.117L575.109 183.452C576.152 188.167 578.517 191.739 582.203 194.165C585.888 196.592 590.617 197.806 596.389 197.806C602.022 197.806 606.577 196.696 610.054 194.477C613.601 192.259 615.374 189.45 615.374 186.053C615.374 180.297 610.367 176.414 600.353 174.404L580.221 170.243C568.885 167.955 560.436 164.037 554.872 158.49C549.309 152.943 546.527 145.835 546.527 137.168C546.527 129.679 548.579 123.231 552.682 117.822C556.785 112.414 562.522 108.253 569.894 105.341C577.335 102.429 586.027 100.972 595.972 100.972C610.715 100.972 622.294 104.093 630.709 110.333C639.193 116.505 644.13 124.929 645.521 135.608Z" fill="#101828"/>
  <path d="M745.7 220.792C731.93 220.792 719.588 217.672 708.67 211.431C697.751 205.19 689.128 196.142 682.8 184.284C676.471 172.427 673.307 158.109 673.307 141.328C673.307 124.409 676.471 110.021 682.8 98.1642C689.198 86.2377 697.856 77.1888 708.774 71.0175C719.762 64.7769 732.07 61.6566 745.7 61.6566C754.74 61.6566 763.12 62.9394 770.84 65.505C778.56 68.0013 785.38 71.6763 791.29 76.5301C797.27 81.3145 802.13 87.2084 805.89 94.2118C809.65 101.146 812.04 109.085 813.09 118.03H779.92C779.29 113.8 778.04 109.987 776.16 106.589C774.35 103.191 771.95 100.314 768.96 97.9561C766.04 95.5986 762.67 93.7957 758.84 92.5476C755.09 91.2302 750.95 90.5714 746.43 90.5714C738.5 90.5714 731.51 92.5823 725.46 96.604C719.484 100.556 714.824 106.312 711.486 113.87C708.218 121.358 706.583 130.511 706.583 141.328C706.583 152.353 708.252 161.645 711.591 169.203C714.929 176.692 719.588 182.343 725.57 186.157C731.55 189.97 738.47 191.877 746.33 191.877C750.71 191.877 754.78 191.288 758.53 190.109C762.29 188.93 765.63 187.231 768.55 185.013C771.47 182.794 773.9 180.089 775.85 176.9C777.86 173.641 779.22 169.931 779.92 165.771H813.09C812.25 172.913 810.13 179.777 806.72 186.365C803.39 192.952 798.83 198.846 793.06 204.046C787.29 209.178 780.44 213.269 772.51 216.32C764.58 219.301 755.65 220.792 745.7 220.792Z" fill="#101828"/>
  <path d="M829.36 218.712V102.429H860.55V122.815H861.8C863.96 115.603 867.54 110.16 872.55 106.485C877.55 102.741 883.29 100.868 889.76 100.868C891.43 100.868 893.17 100.972 894.97 101.18C896.85 101.319 898.52 101.596 899.98 102.013V130.511C898.45 130.026 896.33 129.645 893.62 129.367C890.98 129.02 888.51 128.847 886.21 128.847C881.55 128.847 877.35 129.887 873.59 131.967C869.83 133.978 866.88 136.821 864.72 140.496C862.64 144.102 861.59 148.262 861.59 152.977V218.712H829.36Z" fill="#101828"/>
  <path d="M939.52 220.896C932.14 220.896 925.5 219.613 919.59 217.048C913.75 214.413 909.16 210.53 905.82 205.398C902.48 200.267 900.82 193.888 900.82 186.261C900.82 179.743 902 174.334 904.36 170.035C906.73 165.667 909.96 162.13 914.06 159.426C918.17 156.722 922.83 154.676 928.04 153.289C933.26 151.903 938.79 150.932 944.63 150.377C951.37 149.753 956.8 149.129 960.9 148.505C965 147.881 967.99 146.945 969.87 145.697C971.82 144.379 972.79 142.507 972.79 140.08V139.56C972.79 134.776 971.26 131.066 968.2 128.431C965.21 125.796 960.97 124.479 955.48 124.479C949.7 124.479 945.08 125.761 941.6 128.327C938.2 130.823 935.93 134.013 934.82 137.896L904.88 135.504C906.41 128.431 909.4 122.329 913.86 117.198C918.31 111.997 924.04 108.01 931.07 105.237C938.16 102.394 946.37 100.972 955.69 100.972C962.15 100.972 968.34 101.735 974.25 103.261C980.16 104.786 985.41 107.144 990 110.333C994.66 113.454 998.35 117.51 1001.06 122.503C1003.77 127.495 1005.13 133.424 1005.13 140.288V218.712H974.36V202.486H973.52C971.65 206.161 969.14 209.386 966.01 212.159C962.88 214.863 959.13 217.013 954.75 218.608C950.37 220.133 945.29 220.896 939.52 220.896ZM948.8 198.638C953.53 198.638 957.7 197.702 961.32 195.83C965 193.888 967.86 191.322 969.87 188.133C971.96 184.874 973 181.233 973 177.212V164.835C972.03 165.459 970.64 166.048 968.83 166.603C967.09 167.157 965.14 167.643 962.99 168.059C960.83 168.475 958.68 168.856 956.52 169.203C954.36 169.48 952.42 169.758 950.68 170.035C946.85 170.59 943.52 171.491 940.66 172.739C937.81 173.918 935.59 175.548 933.99 177.628C932.46 179.639 931.69 182.17 931.69 185.221C931.69 189.589 933.29 192.917 936.49 195.206C939.69 197.494 943.79 198.638 948.8 198.638Z" fill="#101828"/>
  <path d="M1087.02 102.429V126.767H1015.14V102.429H1087.02ZM1031.63 218.712V94.0038C1031.63 85.6136 1033.26 78.6449 1036.53 73.0977C1039.87 67.5505 1044.39 63.3901 1050.09 60.6165C1055.86 57.8429 1062.4 56.4561 1069.7 56.4561C1074.71 56.4561 1079.26 56.8722 1083.37 57.7043C1087.54 58.467 1090.6 59.1257 1092.54 59.6805L1086.91 83.8108C1085.59 83.4641 1084.03 83.1174 1082.22 82.7707C1080.41 82.424 1078.5 82.2506 1076.48 82.2506C1071.75 82.2506 1068.45 83.3601 1066.57 85.5789C1064.69 87.7285 1063.75 90.7794 1063.75 94.7318V218.712H1031.63Z" fill="#101828"/>
  <path d="M1161.81 102.429V126.767H1091.61V102.429H1161.81ZM1107.57 74.7619H1139.8V182.932C1139.8 186.815 1140.67 189.693 1142.41 191.565C1144.15 193.368 1146.93 194.269 1150.75 194.269C1152 194.269 1153.39 194.165 1154.92 193.957C1156.45 193.749 1157.78 193.507 1158.89 193.229L1164 217.36C1160.45 218.4 1157.01 219.162 1153.67 219.648C1150.4 220.133 1147.17 220.376 1143.97 220.376C1132.36 220.376 1123.39 217.498 1117.06 211.743C1110.73 205.919 1107.57 197.736 1107.57 187.197V74.7619Z" fill="#101828"/>
</svg>