<svg width="275" height="275" viewBox="0 0 275 275" fill="none" xmlns="http://www.w3.org/2000/svg">
  <path d="M0 0H275V275H0V0Z" fill="#101828"/>
  <path fill-rule="evenodd" clip-rule="evenodd" d="M209.495 61.6474C212.155 62.7375 213.889 65.3055 213.889 68.1541V206.809C213.889 208.411 213.191 211.618 209.801 213.207C207.391 214.337 205.242 213.749 204.816 213.632L204.807 213.63C203.653 213.314 202.803 212.761 202.632 212.649C202.625 212.644 202.613 212.637 202.613 212.637C202.047 212.272 201.499 211.829 201.121 211.515C200.263 210.804 199.107 209.769 197.749 208.517C194.996 205.98 191.053 202.222 186.227 197.559C176.56 188.219 163.192 175.095 148.364 160.493C142.094 154.318 135.562 147.878 128.936 141.345C104.191 116.949 78.1264 91.2515 59.4365 73.1928C56.624 70.4752 56.5706 66.0163 59.3172 63.2335C62.0638 60.4507 66.5704 60.3978 69.3829 63.1154C88.1297 81.2291 114.269 107 139.02 131.402C145.637 137.927 152.155 144.353 158.407 150.509C173.238 165.115 186.562 178.194 196.173 187.481C197.397 188.664 198.558 189.783 199.653 190.833V85.1568L166.841 117.621C164.062 120.372 159.555 120.372 156.775 117.621C153.995 114.871 153.995 110.412 156.775 107.661L201.738 63.1741C203.773 61.1599 206.835 60.5573 209.495 61.6474ZM59.3765 107.661C62.1563 104.911 66.6632 104.911 69.443 107.661L164.617 201.829C167.397 204.579 167.397 209.038 164.617 211.789C161.837 214.539 157.33 214.539 154.551 211.789L59.3765 117.621C56.5967 114.871 56.5967 110.412 59.3765 107.661ZM59.3765 150.548C62.1563 147.798 66.6632 147.798 69.443 150.548L121.271 201.829C124.051 204.579 124.051 209.038 121.271 211.789C118.492 214.539 113.985 214.539 111.205 211.789L59.3765 160.508C56.5967 157.758 56.5967 153.299 59.3765 150.548ZM59.3765 189.695C62.1563 186.945 66.6632 186.945 69.443 189.695L81.7063 201.829C84.4861 204.579 84.4861 209.038 81.7063 211.789C78.9265 214.539 74.4196 214.539 71.6398 211.789L59.3765 199.655C56.5967 196.905 56.5967 192.445 59.3765 189.695Z" fill="#F3F4C0"/>
</svg>