<svg width="320" height="64" viewBox="0 0 320 64" fill="none" xmlns="http://www.w3.org/2000/svg">
  <!-- Icon part -->
  <rect x="0" y="0" width="64" height="64" fill="#101828"/>
  <path fill-rule="evenodd" clip-rule="evenodd" d="M48.7 14.4C49.2 14.6 49.4 15.0 49.4 15.5V47.8C49.4 48.2 49.3 48.8 48.7 49.0C48.3 49.2 47.9 49.1 47.8 49.0L47.8 49.0C47.7 49.0 47.6 48.9 47.5 48.9C47.5 48.9 47.5 48.9 47.5 48.9C47.4 48.9 47.4 48.8 47.3 48.7C47.1 48.6 46.9 48.5 46.6 48.2C46.2 47.8 45.4 47.2 44.6 46.3C42.7 44.6 40.3 42.1 37.6 39.4C36.5 38.2 35.3 37.0 34.1 35.8C29.4 31.3 24.5 26.4 21.0 23.0C20.5 22.5 20.5 21.7 21.0 21.2C21.5 20.7 22.2 20.7 22.7 21.2C26.2 24.6 31.2 29.5 35.8 34.1C37.0 35.3 38.2 36.5 39.4 37.6C42.1 40.3 44.6 42.7 46.3 44.6C46.6 44.8 46.8 45.0 47.0 45.2V24.8L41.0 30.7C40.6 31.2 39.8 31.2 39.3 30.7C38.8 30.2 38.8 29.4 39.3 29.0L47.0 21.0C47.4 20.7 47.9 20.6 48.7 14.4ZM21.0 29.0C21.5 28.5 22.2 28.5 22.7 29.0L40.5 46.5C41.0 47.0 41.0 47.8 40.5 48.2C40.0 48.7 39.2 48.7 38.7 48.2L21.0 30.7C20.5 30.2 20.5 29.4 21.0 29.0ZM21.0 37.4C21.5 36.9 22.2 36.9 22.7 37.4L32.6 46.5C33.0 47.0 33.0 47.8 32.6 48.2C32.1 48.7 31.3 48.7 30.8 48.2L21.0 39.1C20.5 38.6 20.5 37.8 21.0 37.4ZM21.0 44.3C21.5 43.8 22.2 43.8 22.7 44.3L25.3 46.5C25.8 47.0 25.8 47.8 25.3 48.2C24.8 48.7 24.0 48.7 23.5 48.2L21.0 46.1C20.5 45.6 20.5 44.8 21.0 44.3Z" fill="#F3F4C0"/>
  
  <!-- Text part -->
  <g transform="translate(80, 16)">
    <path d="M0 6H6L12 22H13L19 6H25V32H20V14H19L13 31H11L5 14H4V32H0V6Z" fill="#101828"/>
    <path d="M29 32V12H34V32H29ZM31.5 9C30.9 9 30.4 8.8 30.0 8.4C29.6 8.0 29.4 7.5 29.4 6.9C29.4 6.3 29.6 5.8 30.0 5.4C30.4 5.0 30.9 4.8 31.5 4.8C32.1 4.8 32.6 5.0 33.0 5.4C33.4 5.8 33.6 6.3 33.6 6.9C33.6 7.5 33.4 8.0 33.0 8.4C32.6 8.8 32.1 9 31.5 9Z" fill="#101828"/>
    <path d="M38 20V32H33V12H38V15H38.2C38.8 13.8 39.6 12.8 40.6 12.1C41.6 11.4 42.8 11.0 44.2 11.0C45.5 11.0 46.6 11.2 47.5 11.6C48.4 12.0 49.1 12.6 49.6 13.4C50.1 14.2 50.4 15.2 50.4 16.4V32H45.4V20.4C45.4 19.4 45.2 18.6 44.8 18.0C44.4 17.4 43.8 17.1 43.0 17.1C42.4 17.1 41.9 17.2 41.5 17.4C41.1 17.6 40.8 18.0 40.6 18.5C40.4 19.0 40.3 19.6 38 20Z" fill="#101828"/>
    <path d="M62 33C60.3 33 58.8 32.6 57.5 31.8C56.2 31.0 55.2 29.9 54.5 28.5C53.8 27.1 53.4 25.4 53.4 23.4C53.4 21.3 53.8 19.6 54.5 18.2C55.2 16.8 56.2 15.7 57.5 14.9C58.8 14.1 60.3 13.7 62.0 13.7C63.4 13.7 64.6 13.9 65.6 14.3C66.6 14.7 67.4 15.2 68.0 15.8C68.6 16.4 69.1 17.1 69.4 17.9H69.8V6H74.8V32H70.2V29.6H69.8C69.4 30.4 68.8 31.1 68.0 31.7C67.2 32.3 66.3 32.8 65.3 33.1C64.3 33.4 63.2 33 62 33ZM63.6 28.8C64.6 28.8 65.4 28.6 66.1 28.1C66.8 27.6 67.3 26.9 67.6 26.1C67.9 25.3 68.1 24.4 68.1 23.4C68.1 22.4 67.9 21.5 67.6 20.7C67.3 19.9 66.8 19.2 66.1 18.7C65.4 18.2 64.6 18.0 63.6 18.0C62.5 18.0 61.7 18.2 61.0 18.7C60.3 19.2 59.8 19.9 59.5 20.7C59.2 21.5 59.0 22.4 59.0 23.4C59.0 24.4 59.2 25.3 59.5 26.1C59.8 26.9 60.3 27.6 61.0 28.1C61.7 28.6 62.5 28.8 63.6 28.8Z" fill="#101828"/>
    <path d="M87 17L84 17.4C83.8 16.6 83.4 15.9 82.8 15.4C82.2 14.9 81.4 14.6 80.4 14.6C79.5 14.6 78.7 14.8 78.1 15.1C77.5 15.4 77.2 15.8 77.2 16.3C77.2 16.7 77.4 17.0 77.7 17.2C78.0 17.4 78.5 17.6 79.2 17.7L81.8 18.4C83.8 18.8 85.3 19.4 86.3 20.2C87.3 21.0 87.8 22.1 87.8 23.5C87.8 24.6 87.4 25.6 86.6 26.4C85.8 27.2 84.7 27.8 83.3 28.2C81.9 28.6 80.3 28.8 78.5 28.8C75.8 28.8 73.6 28.3 71.9 27.3C70.2 26.3 69.2 24.8 68.9 22.8L72.8 22.5C73.0 23.5 73.5 24.3 74.2 24.9C74.9 25.5 75.8 25.8 76.9 25.8C77.9 25.8 78.7 25.6 79.3 25.2C79.9 24.8 80.2 24.3 80.2 23.7C80.2 22.8 79.3 22.3 77.5 21.9L75.1 21.3C73.1 20.9 71.6 20.3 70.6 19.5C69.6 18.7 69.1 17.6 69.1 16.2C69.1 15.2 69.4 14.3 70.0 13.5C70.6 12.7 71.5 12.1 72.7 11.7C73.9 11.3 75.3 11.1 76.9 11.1C79.4 11.1 81.5 11.6 83.1 12.6C84.7 13.6 85.6 15.0 87 17Z" fill="#101828"/>
    <path d="M99 33C96.4 33 94.1 32.5 92.1 31.5C90.1 30.5 88.5 29.1 87.3 27.3C86.1 25.5 85.5 23.4 85.5 21C85.5 18.5 86.1 16.4 87.3 14.6C88.5 12.8 90.1 11.4 92.1 10.4C94.1 9.4 96.4 8.9 99 8.9C101.0 8.9 102.8 9.2 104.4 9.8C106.0 10.4 107.4 11.2 108.6 12.2C109.8 13.2 110.7 14.4 111.3 15.8C111.9 17.2 112.2 18.7 112.2 20.3H107.7C107.5 18.8 107.1 17.4 106.5 16.1C105.9 14.8 105.1 13.7 104.1 12.8C103.1 11.9 101.9 11.4 100.5 11.4C98.8 11.4 97.3 11.8 96.0 12.6C94.7 13.4 93.7 14.5 92.9 15.9C92.1 17.3 91.7 18.9 91.7 20.7C91.7 22.5 92.1 24.1 92.9 25.5C93.7 26.9 94.7 28.0 96.0 28.8C97.3 29.6 98.8 30.0 100.5 30.0C101.6 30.0 102.6 29.8 103.5 29.4C104.4 29.0 105.2 28.5 105.9 27.9C106.6 27.3 107.1 26.6 107.4 25.8C107.7 25.0 107.9 24.1 107.9 23.1H112.4C112.2 25.1 111.6 26.9 110.6 28.5C109.6 30.1 108.2 31.4 106.4 32.4C104.6 33.4 102.5 33.9 100.1 33.9C97.7 33.9 95.6 33.4 93.8 32.4C92.0 31.4 90.6 30.1 89.6 28.5C88.6 26.9 88.1 25.1 88.1 23.1C88.1 21.1 88.6 19.3 89.6 17.7C90.6 16.1 92.0 14.8 93.8 13.8C95.6 12.8 97.7 12.3 100.1 12.3C102.5 12.3 104.6 12.8 106.4 13.8C108.2 14.8 109.6 16.1 110.6 17.7C111.6 19.3 112.2 21.1 112.4 23.1H107.9C107.9 24.1 107.7 25.0 107.4 25.8C107.1 26.6 106.6 27.3 105.9 27.9C105.2 28.5 104.4 29.0 103.5 29.4C102.6 29.8 101.6 30.0 100.5 30.0C98.8 30.0 97.3 29.6 96.0 28.8C94.7 28.0 93.7 26.9 92.9 25.5C92.1 24.1 91.7 22.5 91.7 20.7C91.7 18.9 92.1 17.3 92.9 15.9C93.7 14.5 94.7 13.4 96.0 12.6C97.3 11.8 98.8 11.4 100.5 11.4C101.9 11.4 103.1 11.9 104.1 12.8C105.1 13.7 105.9 14.8 106.5 16.1C107.1 17.4 107.5 18.8 107.7 20.3H112.2C112.2 18.7 111.9 17.2 111.3 15.8C110.7 14.4 109.8 13.2 108.6 12.2C107.4 11.2 106.0 10.4 104.4 9.8C102.8 9.2 101.0 8.9 99 8.9Z" fill="#101828"/>
    <path d="M118 32V12H122V15H122.4C122.8 13.8 123.4 12.8 124.2 12.1C125.0 11.4 125.9 11.0 126.9 11.0C127.2 11.0 127.5 11.0 127.8 11.1C128.1 11.2 128.3 11.2 128.5 11.3V15.6C128.2 15.5 127.8 15.4 127.3 15.3C126.8 15.2 126.3 15.2 125.8 15.2C124.9 15.2 124.1 15.4 123.4 15.8C122.7 16.2 122.2 16.7 121.8 17.4C121.4 18.1 121.2 18.9 121.2 19.8V32H118Z" fill="#101828"/>
    <path d="M139 33C137.1 33 135.4 32.7 133.9 32.1C132.4 31.5 131.1 30.7 130.0 29.7C128.9 28.7 128.1 27.5 127.5 26.1C126.9 24.7 126.6 23.2 126.6 21.6C126.6 20.2 126.9 18.9 127.5 17.7C128.1 16.5 128.9 15.4 129.9 14.5C130.9 13.6 132.1 12.9 133.4 12.4C134.7 11.9 136.1 11.5 137.6 11.2C139.4 10.8 140.9 10.5 142.1 10.2C143.3 9.9 144.2 9.5 144.8 9.0C145.4 8.5 145.7 7.8 145.7 6.9V6.7C145.7 5.8 145.4 5.1 144.8 4.6C144.2 4.1 143.3 3.8 142.1 3.8C140.8 3.8 139.8 4.1 139.0 4.6C138.2 5.1 137.7 5.8 137.5 6.7L133.1 6.4C133.5 5.1 134.1 3.9 134.9 2.8C135.7 1.7 136.7 0.8 137.9 0.1C139.1 -0.6 140.5 -1.0 142.1 -1.0C143.4 -1.0 144.6 -0.8 145.7 -0.4C146.8 0.0 147.7 0.5 148.4 1.1C149.1 1.7 149.6 2.4 149.9 3.2C150.2 4.0 150.4 4.9 150.4 5.9V32H146.2V29.6H145.9C145.4 30.6 144.7 31.4 143.8 32.0C142.9 32.6 141.8 33.0 140.5 33.3C139.2 33.6 137.8 33.8 136.3 33.8C134.8 33.8 133.4 33.6 132.1 33.1C130.8 32.6 129.7 31.9 128.8 31.0C127.9 30.1 127.5 28.9 127.5 27.5C127.5 26.3 127.8 25.3 128.4 24.4C129.0 23.5 129.8 22.8 130.8 22.2C131.8 21.6 132.9 21.2 134.2 20.9C135.5 20.6 136.8 20.3 138.2 20.1C140.0 19.8 141.5 19.5 142.7 19.2C143.9 18.9 144.8 18.5 145.4 18.0C146.0 17.5 146.3 16.8 146.3 15.9V15.7C146.3 14.6 146.0 13.8 145.4 13.3C144.8 12.8 143.9 12.5 142.7 12.5C141.4 12.5 140.4 12.8 139.7 13.3C139.0 13.8 138.5 14.5 138.3 15.4L133.9 15.1C134.3 13.8 134.9 12.6 135.7 11.5C136.5 10.4 137.5 9.5 138.7 8.8C139.9 8.1 141.3 7.7 142.9 7.7C144.5 7.7 145.9 8.0 147.1 8.5C148.3 9.0 149.3 9.7 150.1 10.5C150.9 11.3 151.5 12.2 151.9 13.3C152.3 14.4 152.5 15.5 152.5 16.7V32H148.3V29.6H148.0C147.5 30.6 146.8 31.4 145.9 32.0C145.0 32.6 143.9 33.0 142.6 33.3C141.3 33.6 139.9 33.8 138.4 33.8ZM139.2 30C140.4 30 141.4 29.8 142.2 29.4C143.0 29.0 143.6 28.4 144.0 27.7C144.4 27.0 144.6 26.2 144.6 25.3V22.0C144.3 22.2 143.9 22.4 143.4 22.5C142.9 22.6 142.3 22.7 141.6 22.8C140.9 22.9 140.2 23.0 139.5 23.1C138.8 23.2 138.2 23.3 137.7 23.4C136.7 23.6 135.8 23.9 135.0 24.3C134.2 24.7 133.6 25.2 133.2 25.8C132.8 26.4 132.6 27.1 132.6 27.9C132.6 29.0 133.0 29.8 133.8 30.4C134.6 31.0 135.7 31.3 137.1 31.3Z" fill="#101828"/>
    <path d="M164 12V16H156V12H164ZM158 32V8C158 6.9 158.3 5.9 158.9 5.0C159.5 4.1 160.3 3.4 161.3 2.9C162.3 2.4 163.4 2.2 164.6 2.2C165.4 2.2 166.1 2.3 166.7 2.4C167.3 2.5 167.7 2.6 167.9 2.7L166.9 6.0C166.7 5.9 166.4 5.9 166.0 5.8C165.6 5.7 165.2 5.7 164.8 5.7C164.1 5.7 163.6 5.8 163.3 6.1C163.0 6.4 162.8 6.8 162.8 7.4V32H158Z" fill="#101828"/>
    <path d="M178 12V16H170V12H178ZM172 5H176V26C176 26.6 176.1 27.1 176.3 27.4C176.5 27.7 176.7 27.9 177.0 28.0C177.3 28.1 177.6 28.2 177.9 28.2C178.1 28.2 178.3 28.2 178.5 28.1C178.7 28.0 178.8 28.0 178.9 27.9L179.6 32C179.4 32.1 179.1 32.2 178.7 32.3C178.3 32.4 177.8 32.4 177.2 32.4C176.1 32.4 175.1 32.2 174.2 31.8C173.3 31.4 172.6 30.8 172.1 30.0C171.6 29.2 171.4 28.2 171.4 27.0V5H172Z" fill="#101828"/>
  </g>
</svg>