<svg width="1439" height="275" viewBox="0 0 1439 275" fill="none" xmlns="http://www.w3.org/2000/svg">
    <path d="M0 0H275V275H0V0Z" fill="#101828" />
    <path fill-rule="evenodd" clip-rule="evenodd"
        d="M209.495 61.6474C212.155 62.7375 213.889 65.3055 213.889 68.1541V206.809C213.889 208.411 213.191 211.618 209.801 213.207C207.391 214.337 205.242 213.749 204.816 213.632L204.807 213.63C203.653 213.314 202.803 212.761 202.632 212.649C202.625 212.644 202.613 212.637 202.613 212.637C202.047 212.272 201.499 211.829 201.121 211.515C200.263 210.804 199.107 209.769 197.749 208.517C194.996 205.98 191.053 202.222 186.227 197.559C176.56 188.219 163.192 175.095 148.364 160.493C142.094 154.318 135.562 147.878 128.936 141.345C104.191 116.949 78.1264 91.2515 59.4365 73.1928C56.624 70.4752 56.5706 66.0163 59.3172 63.2335C62.0638 60.4507 66.5704 60.3978 69.3829 63.1154C88.1297 81.2291 114.269 107 139.02 131.402C145.637 137.927 152.155 144.353 158.407 150.509C173.238 165.115 186.562 178.194 196.173 187.481C197.397 188.664 198.558 189.783 199.653 190.833V85.1568L166.841 117.621C164.062 120.372 159.555 120.372 156.775 117.621C153.995 114.871 153.995 110.412 156.775 107.661L201.738 63.1741C203.773 61.1599 206.835 60.5573 209.495 61.6474ZM59.3765 107.661C62.1563 104.911 66.6632 104.911 69.443 107.661L164.617 201.829C167.397 204.579 167.397 209.038 164.617 211.789C161.837 214.539 157.33 214.539 154.551 211.789L59.3765 117.621C56.5967 114.871 56.5967 110.412 59.3765 107.661ZM59.3765 150.548C62.1563 147.798 66.6632 147.798 69.443 150.548L121.271 201.829C124.051 204.579 124.051 209.038 121.271 211.789C118.492 214.539 113.985 214.539 111.205 211.789L59.3765 160.508C56.5967 157.758 56.5967 153.299 59.3765 150.548ZM59.3765 189.695C62.1563 186.945 66.6632 186.945 69.443 189.695L81.7063 201.829C84.4861 204.579 84.4861 209.038 81.7063 211.789C78.9265 214.539 74.4196 214.539 71.6398 211.789L59.3765 199.655C56.5967 196.905 56.5967 192.445 59.3765 189.695Z"
        fill="#F3F4C0" />
    <path
        d="M330 63.7368H370.578L413.347 167.851H415.12L457.993 63.7368H498.676V218.712H466.547V117.822H465.295L424.926 217.984H403.228L363.172 117.614H361.92V218.712H330V63.7368Z"
        fill="#101828" />
    <path
        d="M518.287 218.712V102.429H550.52V218.712H518.287ZM534.351 87.5551C529.553 87.5551 525.45 85.9603 522.042 82.7707C518.634 79.581 516.931 75.7327 516.931 71.2256C516.931 66.7185 518.634 62.9048 522.042 59.7845C525.45 56.5948 529.553 55 534.351 55C539.219 55 543.357 56.5948 546.764 59.7845C550.172 62.9048 551.876 66.7185 551.876 71.2256C551.876 75.7327 550.172 79.581 546.764 82.7707C543.357 85.9603 539.219 87.5551 534.351 87.5551Z"
        fill="#101828" />
    <path
        d="M601.842 151.521V218.712H569.609V102.429H601.32V123.127H602.468C605.111 116.262 609.318 110.853 615.09 106.901C620.862 102.949 628.094 100.972 636.787 100.972C644.854 100.972 651.878 102.741 657.859 106.277C663.909 109.813 668.603 114.84 671.941 121.358C675.279 127.876 676.948 135.677 676.948 144.761V218.712H644.715V150.481C644.715 143.409 642.872 137.861 639.186 133.84C635.501 129.749 630.424 127.703 623.957 127.703C619.645 127.703 615.82 128.674 612.482 130.615C609.144 132.487 606.536 135.192 604.659 138.728C602.781 142.264 601.842 146.529 601.842 151.521Z"
        fill="#101828" />
    <path
        d="M738.598 220.584C729.696 220.584 721.664 218.296 714.501 213.719C707.338 209.143 701.671 202.417 697.498 193.541C693.325 184.596 691.239 173.675 691.239 160.778C691.239 147.465 693.395 136.371 697.707 127.495C702.018 118.619 707.756 111.997 714.918 107.629C722.081 103.191 729.905 100.972 738.389 100.972C744.926 100.972 750.385 102.082 754.766 104.301C759.147 106.45 762.694 109.155 765.406 112.414C768.118 115.673 770.17 118.897 771.561 122.086H772.5V63.7368H804.837V218.712H773.021V200.094H771.561C770.1 203.284 767.979 206.473 765.198 209.663C762.416 212.783 758.835 215.383 754.453 217.464C750.142 219.544 744.856 220.584 738.598 220.584ZM748.716 194.997C753.932 194.997 758.348 193.576 761.964 190.733C765.65 187.821 768.431 183.799 770.309 178.668C772.256 173.537 773.23 167.539 773.23 160.674C773.23 153.74 772.291 147.742 770.413 142.68C768.536 137.549 765.754 133.597 762.068 130.823C758.383 127.98 753.932 126.559 748.716 126.559C743.431 126.559 738.98 128.015 735.364 130.927C731.748 133.84 729.001 137.861 727.123 142.992C725.245 148.054 724.307 153.948 724.307 160.674C724.307 167.4 725.245 173.363 727.123 178.564C729.001 183.695 731.748 187.717 735.364 190.629C739.05 193.541 743.5 194.997 748.716 194.997Z"
        fill="#101828" />
    <path
        d="M920.521 135.608L891 137.376C890.235 133.701 888.184 130.546 884.846 127.911C881.508 125.207 877.022 123.855 871.389 123.855C866.382 123.855 862.175 124.895 858.767 126.975C855.429 129.055 853.76 131.829 853.76 135.296C853.76 138.069 854.838 140.462 856.994 142.472C859.219 144.414 863.009 145.939 868.364 147.049L889.54 151.209C900.875 153.497 909.325 157.207 914.888 162.338C920.452 167.47 923.233 174.23 923.233 182.62C923.233 190.317 921.008 197.043 916.557 202.798C912.106 208.484 905.987 212.957 898.198 216.216C890.409 219.405 881.473 221 871.389 221C855.951 221 843.642 217.776 834.462 211.327C825.352 204.878 820.032 196.142 818.502 185.117L850.109 183.452C851.152 188.167 853.517 191.739 857.203 194.165C860.888 196.592 865.617 197.806 871.389 197.806C877.022 197.806 881.577 196.696 885.054 194.477C888.601 192.259 890.374 189.45 890.374 186.053C890.374 180.297 885.367 176.414 875.353 174.404L855.221 170.243C843.885 167.955 835.436 164.037 829.872 158.49C824.309 152.943 821.527 145.835 821.527 137.168C821.527 129.679 823.579 123.231 827.682 117.822C831.785 112.414 837.522 108.253 844.894 105.341C852.335 102.429 861.027 100.972 870.972 100.972C885.715 100.972 897.294 104.093 905.709 110.333C914.193 116.505 919.13 124.929 920.521 135.608Z"
        fill="#101828" />
    <path
        d="M1020.7 220.792C1006.93 220.792 994.588 217.672 983.67 211.431C972.751 205.19 964.128 196.142 957.8 184.284C951.471 172.427 948.307 158.109 948.307 141.328C948.307 124.409 951.471 110.021 957.8 98.1642C964.198 86.2377 972.856 77.1888 983.774 71.0175C994.762 64.7769 1007.07 61.6566 1020.7 61.6566C1029.74 61.6566 1038.12 62.9394 1045.84 65.505C1053.56 68.0013 1060.38 71.6763 1066.29 76.5301C1072.27 81.3145 1077.13 87.2084 1080.89 94.2118C1084.65 101.146 1087.04 109.085 1088.09 118.03H1054.92C1054.29 113.8 1053.04 109.987 1051.16 106.589C1049.35 103.191 1046.95 100.314 1043.96 97.9561C1041.04 95.5986 1037.67 93.7957 1033.84 92.5476C1030.09 91.2302 1025.95 90.5714 1021.43 90.5714C1013.5 90.5714 1006.51 92.5823 1000.46 96.604C994.484 100.556 989.824 106.312 986.486 113.87C983.218 121.358 981.583 130.511 981.583 141.328C981.583 152.353 983.252 161.645 986.591 169.203C989.929 176.692 994.588 182.343 1000.57 186.157C1006.55 189.97 1013.47 191.877 1021.33 191.877C1025.71 191.877 1029.78 191.288 1033.53 190.109C1037.29 188.93 1040.63 187.231 1043.55 185.013C1046.47 182.794 1048.9 180.089 1050.85 176.9C1052.86 173.641 1054.22 169.931 1054.92 165.771H1088.09C1087.25 172.913 1085.13 179.777 1081.72 186.365C1078.39 192.952 1073.83 198.846 1068.06 204.046C1062.29 209.178 1055.44 213.269 1047.51 216.32C1039.58 219.301 1030.65 220.792 1020.7 220.792Z"
        fill="#101828" />
    <path
        d="M1104.36 218.712V102.429H1135.55V122.815H1136.8C1138.96 115.603 1142.54 110.16 1147.55 106.485C1152.55 102.741 1158.29 100.868 1164.76 100.868C1166.43 100.868 1168.17 100.972 1169.97 101.18C1171.85 101.319 1173.52 101.596 1174.98 102.013V130.511C1173.45 130.026 1171.33 129.645 1168.62 129.367C1165.98 129.02 1163.51 128.847 1161.21 128.847C1156.55 128.847 1152.35 129.887 1148.59 131.967C1144.83 133.978 1141.88 136.821 1139.72 140.496C1137.64 144.102 1136.59 148.262 1136.59 152.977V218.712H1104.36Z"
        fill="#101828" />
    <path
        d="M1214.52 220.896C1207.14 220.896 1200.5 219.613 1194.59 217.048C1188.75 214.413 1184.16 210.53 1180.82 205.398C1177.48 200.267 1175.82 193.888 1175.82 186.261C1175.82 179.743 1177 174.334 1179.36 170.035C1181.73 165.667 1184.96 162.13 1189.06 159.426C1193.17 156.722 1197.83 154.676 1203.04 153.289C1208.26 151.903 1213.79 150.932 1219.63 150.377C1226.37 149.753 1231.8 149.129 1235.9 148.505C1240 147.881 1242.99 146.945 1244.87 145.697C1246.82 144.379 1247.79 142.507 1247.79 140.08V139.56C1247.79 134.776 1246.26 131.066 1243.2 128.431C1240.21 125.796 1235.97 124.479 1230.48 124.479C1224.7 124.479 1220.08 125.761 1216.6 128.327C1213.2 130.823 1210.93 134.013 1209.82 137.896L1179.88 135.504C1181.41 128.431 1184.4 122.329 1188.86 117.198C1193.31 111.997 1199.04 108.01 1206.07 105.237C1213.16 102.394 1221.37 100.972 1230.69 100.972C1237.15 100.972 1243.34 101.735 1249.25 103.261C1255.16 104.786 1260.41 107.144 1265 110.333C1269.66 113.454 1273.35 117.51 1276.06 122.503C1278.77 127.495 1280.13 133.424 1280.13 140.288V218.712H1249.36V202.486H1248.52C1246.65 206.161 1244.14 209.386 1241.01 212.159C1237.88 214.863 1234.13 217.013 1229.75 218.608C1225.37 220.133 1220.29 220.896 1214.52 220.896ZM1223.8 198.638C1228.53 198.638 1232.7 197.702 1236.32 195.83C1240 193.888 1242.86 191.322 1244.87 188.133C1246.96 184.874 1248 181.233 1248 177.212V164.835C1247.03 165.459 1245.64 166.048 1243.83 166.603C1242.09 167.157 1240.14 167.643 1237.99 168.059C1235.83 168.475 1233.68 168.856 1231.52 169.203C1229.36 169.48 1227.42 169.758 1225.68 170.035C1221.85 170.59 1218.52 171.491 1215.66 172.739C1212.81 173.918 1210.59 175.548 1208.99 177.628C1207.46 179.639 1206.69 182.17 1206.69 185.221C1206.69 189.589 1208.29 192.917 1211.49 195.206C1214.69 197.494 1218.79 198.638 1223.8 198.638Z"
        fill="#101828" />
    <path
        d="M1362.02 102.429V126.767H1290.14V102.429H1362.02ZM1306.63 218.712V94.0038C1306.63 85.6136 1308.26 78.6449 1311.53 73.0977C1314.87 67.5505 1319.39 63.3901 1325.09 60.6165C1330.86 57.8429 1337.4 56.4561 1344.7 56.4561C1349.71 56.4561 1354.26 56.8722 1358.37 57.7043C1362.54 58.467 1365.6 59.1257 1367.54 59.6805L1361.91 83.8108C1360.59 83.4641 1359.03 83.1174 1357.22 82.7707C1355.41 82.424 1353.5 82.2506 1351.48 82.2506C1346.75 82.2506 1343.45 83.3601 1341.57 85.5789C1339.69 87.7285 1338.75 90.7794 1338.75 94.7318V218.712H1306.63Z"
        fill="#101828" />
    <path
        d="M1436.81 102.429V126.767H1366.61V102.429H1436.81ZM1382.57 74.7619H1414.8V182.932C1414.8 186.815 1415.67 189.693 1417.41 191.565C1419.15 193.368 1421.93 194.269 1425.75 194.269C1427 194.269 1428.39 194.165 1429.92 193.957C1431.45 193.749 1432.78 193.507 1433.89 193.229L1439 217.36C1435.45 218.4 1432.01 219.162 1428.67 219.648C1425.4 220.133 1422.17 220.376 1418.97 220.376C1407.36 220.376 1398.39 217.498 1392.06 211.743C1385.73 205.919 1382.57 197.736 1382.57 187.197V74.7619Z"
        fill="#101828" />
</svg>